<svg id="Layer_1" data-name="Layer 1" xmlns="http://www.w3.org/2000/svg" viewBox="0 0 133.75 26.56"><defs><linearGradient id="linear-gradient" x1="34.92" y1="-10.94" x2="34.92" y2="8.51" gradientTransform="rotate(-45 42.621 32.136)" gradientUnits="userSpaceOnUse"><stop offset="0" stop-color="#00dd74"/><stop offset="1" stop-color="#0ba0e0"/></linearGradient><style>.cls-1{isolation:isolate}.cls-2{fill:#fff}</style></defs><g id="Chartmetric" class="cls-1"><g class="cls-1"><path class="cls-2" d="M50.22 17.89a5.62 5.62 0 01-2.19 1 6.54 6.54 0 01-1.39.14 5.5 5.5 0 01-2.24-.45 5.43 5.43 0 01-2.95-3.05 6.16 6.16 0 01-.45-2.26 6 6 0 01.45-2.27 5.71 5.71 0 011.17-1.85 5.52 5.52 0 014.07-1.7 7.24 7.24 0 011.38.12 6.72 6.72 0 011.15.43 6.13 6.13 0 011 .56 9.89 9.89 0 01.87.73l-.87.93a6.7 6.7 0 00-1.54-1.1 4.19 4.19 0 00-2-.44A4.11 4.11 0 0045 9a4.17 4.17 0 00-1.37 1 4.63 4.63 0 00-.92 1.47 5.1 5.1 0 00-.32 1.81 5.25 5.25 0 00.32 1.83 4.63 4.63 0 00.92 1.47 4.35 4.35 0 001.37 1 4.11 4.11 0 001.72.36 4.39 4.39 0 002-.42 7.1 7.1 0 001.63-1.19l.83.81a8.44 8.44 0 01-.96.75zM54.35 18.86h-1.23V7.18h1.23V12a4 4 0 011.09-1.15 3 3 0 011.74-.47 3.48 3.48 0 011.34.24 2.78 2.78 0 011 .68 3.06 3.06 0 01.63 1.05 4.05 4.05 0 01.21 1.34v5.14h-1.24V14a2.7 2.7 0 00-.59-1.83 2.14 2.14 0 00-1.7-.67 2.63 2.63 0 00-1 .18 2.31 2.31 0 00-1.31 1.36 2.76 2.76 0 00-.19 1zM64.63 11.73a7.19 7.19 0 00-1.17.44l-.37-1a8.27 8.27 0 011.39-.5 6.55 6.55 0 011.62-.19 3.68 3.68 0 012.6.84 3.22 3.22 0 01.92 2.49v5.06h-1.19v-1.26a4.09 4.09 0 01-1.16 1 3.49 3.49 0 01-1.83.43 4 4 0 01-1.13-.16 2.85 2.85 0 01-1-.48 2.48 2.48 0 01-.7-.81 2.29 2.29 0 01-.27-1.14 2.54 2.54 0 01.26-1.16 2.34 2.34 0 01.73-.84 3.5 3.5 0 011.12-.51 5.33 5.33 0 011.43-.18 9.23 9.23 0 011.39.1 8.38 8.38 0 011.15.26v-.29a2.1 2.1 0 00-.65-1.69 2.64 2.64 0 00-1.77-.58 5.06 5.06 0 00-1.37.17zm-.39 3.4a1.48 1.48 0 00-.62 1.26 1.46 1.46 0 00.16.71 1.89 1.89 0 00.46.52 2.27 2.27 0 00.66.33 2.9 2.9 0 00.79.11 3.49 3.49 0 001.08-.17 3 3 0 00.87-.46 2.22 2.22 0 00.59-.71 1.82 1.82 0 00.22-.9V15a10 10 0 00-1.06-.24 7.11 7.11 0 00-1.39-.09 2.93 2.93 0 00-1.76.46zM73.47 18.86h-1.23v-8.27h1.23v2.16a4.48 4.48 0 01.53-.95 3.85 3.85 0 01.77-.74 3.07 3.07 0 01.94-.47 3.32 3.32 0 011.11-.15v1.33h-.1a3.38 3.38 0 00-1.27.24 2.9 2.9 0 00-1 .72 3.41 3.41 0 00-.7 1.19 4.87 4.87 0 00-.26 1.64zM80.38 16.51a1.28 1.28 0 00.39 1.07 1.58 1.58 0 001 .3 2.91 2.91 0 00.6-.06 2.69 2.69 0 00.6-.23v1.06a2.45 2.45 0 01-.68.26 3.35 3.35 0 01-.81.09 3.12 3.12 0 01-.93-.13 1.83 1.83 0 01-.74-.4 1.92 1.92 0 01-.49-.73 2.89 2.89 0 01-.18-1.07v-5H78v-1.08h1.15v-2.5h1.23v2.5H83v1.08h-2.62zM92.25 11.42a3.22 3.22 0 01.63-.53 2.83 2.83 0 01.79-.35 3.35 3.35 0 011-.13 2.9 2.9 0 012.25.89 3.43 3.43 0 01.82 2.44v5.12H96.5V14a2.71 2.71 0 00-.57-1.85 2 2 0 00-1.58-.65 2.38 2.38 0 00-.88.17 2.13 2.13 0 00-.73.49 2.5 2.5 0 00-.49.81 2.9 2.9 0 00-.19 1.09v4.77h-1.21V14a2.65 2.65 0 00-.57-1.81 2 2 0 00-1.56-.65 2.09 2.09 0 00-.91.19 2.17 2.17 0 00-.73.55 2.59 2.59 0 00-.49.82 2.89 2.89 0 00-.17 1.05v4.72h-1.24v-8.28h1.24V12a6.14 6.14 0 01.45-.59 3.06 3.06 0 01.57-.51 2.66 2.66 0 01.72-.34 2.94 2.94 0 01.93-.13 2.81 2.81 0 011.66.47 3 3 0 011 1.18 4.48 4.48 0 01.5-.66zM101.47 16.37a2.79 2.79 0 00.66.88 2.63 2.63 0 00.89.54 2.82 2.82 0 001 .19 3.2 3.2 0 001.48-.32 4.36 4.36 0 001.13-.85l.77.69a5.28 5.28 0 01-1.4 1.13 4.28 4.28 0 01-2 .42 4.11 4.11 0 01-1.6-.31 3.93 3.93 0 01-1.31-.88 4.18 4.18 0 01-.9-1.37 4.56 4.56 0 01-.33-1.76 5 5 0 01.29-1.69 4.29 4.29 0 01.83-1.37 3.79 3.79 0 011.25-.92 3.7 3.7 0 011.6-.34 3.74 3.74 0 011.63.34 3.62 3.62 0 011.21.94 4.07 4.07 0 01.76 1.39 5.66 5.66 0 01.25 1.71V15a1.62 1.62 0 010 .21h-6.55a3.36 3.36 0 00.34 1.16zm5-2.1a4.33 4.33 0 00-.23-1.08 2.88 2.88 0 00-.51-.89 2.38 2.38 0 00-1.89-.85 2.25 2.25 0 00-1 .22 2.49 2.49 0 00-.81.59 3.09 3.09 0 00-.57.89 3.62 3.62 0 00-.29 1.12zM111.54 16.51a1.28 1.28 0 00.38 1.07 1.6 1.6 0 001 .3 2.91 2.91 0 00.6-.06 2.52 2.52 0 00.6-.23v1.06a2.34 2.34 0 01-.68.26 3.35 3.35 0 01-.81.09 3.12 3.12 0 01-.93-.13 1.89 1.89 0 01-.74-.4 1.92 1.92 0 01-.49-.73 2.89 2.89 0 01-.18-1.07v-5h-1.15v-1.08h1.15v-2.5h1.24v2.5h2.62v1.08h-2.62zM117.57 18.86h-1.23v-8.27h1.23v2.16a4.1 4.1 0 01.56-.95 3.6 3.6 0 01.77-.74 3 3 0 01.94-.47 3.29 3.29 0 011.1-.15v1.33h-.09a3.38 3.38 0 00-1.27.24 2.9 2.9 0 00-1 .72 3.43 3.43 0 00-.71 1.19 4.87 4.87 0 00-.25 1.64zM122.85 8.78V7.42h1.41v1.36zm.08 10.08v-8.27h1.23v8.27zM132.71 18.6a3.92 3.92 0 01-2 .45 4.12 4.12 0 01-1.69-.34 4.35 4.35 0 01-1.34-.93 4.21 4.21 0 01-.89-1.37 4.42 4.42 0 01-.32-1.66 4.52 4.52 0 01.32-1.68 4.25 4.25 0 01.89-1.38 4.38 4.38 0 011.34-.94 4.12 4.12 0 011.69-.34 5 5 0 011.07.11 4.33 4.33 0 01.88.31 3.76 3.76 0 01.74.48 6.76 6.76 0 01.62.57l-.81.87a5.27 5.27 0 00-1.08-.88 2.6 2.6 0 00-1.43-.37 2.7 2.7 0 00-1.17.25 2.91 2.91 0 00-.95.68 3.28 3.28 0 00-.62 1 3.48 3.48 0 00-.22 1.26A3.35 3.35 0 00128 16a3.31 3.31 0 00.64 1 3 3 0 003.58.58 5 5 0 001.11-.88l.79.73a5.65 5.65 0 01-1.41 1.17z" transform="translate(-.38 -.72)"/></g></g><path d="M18.71 6.86v-1a1 1 0 00-1-1 1 1 0 00-1 1v1.57a1 1 0 01-1 1 1 1 0 01-1-1V1.72a1 1 0 00-1-1 1 1 0 00-1 1V18a1 1 0 01-1 1 1 1 0 01-1-1V5.82a1 1 0 00-1-1 1 1 0 00-1 1V11a1 1 0 01-1 1 1 1 0 01-1-1V9.84a1 1 0 00-1-1 1 1 0 00-1 1v8.29a1 1 0 001 1 1 1 0 001-1v-3.56a1 1 0 011-1 1 1 0 011 1v7.67a1 1 0 001 1 1 1 0 001-1v-.68a1 1 0 011-1 1 1 0 011 1v4.78a1 1 0 001 1 1 1 0 001-1V11a1 1 0 011-1 1 1 0 011 1v11.18a1 1 0 001 1 1 1 0 001-1v-4.43a1 1 0 011-1 1 1 0 011 1v.63a1 1 0 001 .75 1 1 0 001-1V9.87a1 1 0 00-1-1 1 1 0 00-1 1v4.3a1 1 0 01-1 1 1 1 0 01-1-1V6.86zm-16.29 7v.25a1 1 0 01-1 1 1 1 0 01-1-1v-.25a1 1 0 011-1 1 1 0 011 1zm24.39 0v.24a1 1 0 01-1 1 1 1 0 01-1-1v-.24a1 1 0 011-1 1 1 0 011 1.02z" transform="translate(-.38 -.72)" fill-rule="evenodd" fill="url(#linear-gradient)"/></svg>